# Blender v2.81 (sub 16) OBJ File: ''
# www.blender.org
mtllib left_hand.mtl
o line.R.002_Line.009
v 1.974421 5.305857 0.293041
v 1.929190 5.141255 -1.598746
l 1 2
o Stickman_Cube.002_Stickman_Cube.015
v 0.388795 0.307497 -0.119461
v 0.392660 0.155933 -0.190448
v 0.233730 0.156499 -0.181975
v 0.231961 0.281802 -0.116269
v 0.396703 -0.008149 -0.157485
v 0.238538 0.019251 -0.147898
v 0.158022 0.054440 -0.114393
v 0.141133 0.148254 -0.126177
v 0.153440 0.237304 -0.092364
v 0.397170 -0.041532 0.119715
v 0.393303 0.110034 0.190703
v 0.234345 0.112531 0.183134
v 0.238985 -0.012701 0.117432
v 0.389262 0.274115 0.157740
v 0.232407 0.249849 0.149061
v 0.153790 0.212268 0.115536
v 0.141561 0.117730 0.127282
v 0.158372 0.029403 0.093507
v 0.398419 -0.084023 -0.026015
v 0.238541 -0.045265 -0.021078
v 0.144040 0.025490 -0.012398
v 0.387546 0.349988 0.026269
v 0.229533 0.314293 0.022237
v 0.138653 0.240493 0.013503
v 0.110794 0.132232 0.000512
v 1.456499 0.294750 -0.126471
v 1.461571 0.341629 0.017988
v 1.475178 0.278342 0.150149
v 1.517441 -0.005257 0.116085
v 1.492724 -0.062391 -0.027066
v 1.459558 -0.009346 -0.157944
v 1.503539 0.135400 0.184724
v 1.450907 0.143860 -0.193848
v 1.143351 0.304448 -0.124296
v 1.146000 0.349457 0.020861
v 0.857011 0.295957 -0.121640
v 0.856333 0.339449 0.024210
v 0.862192 0.264863 0.155828
v 1.156856 0.281144 0.153708
v 0.603479 0.306083 -0.119993
v 0.602248 0.350781 0.026003
v 0.604534 0.272987 0.157241
v 1.192536 -0.014699 0.121291
v 1.176069 -0.066028 -0.024269
v 0.884335 -0.047730 0.118147
v 0.880300 -0.093510 -0.027970
v 0.869728 -0.021213 -0.159856
v 1.151411 -0.004032 -0.157524
v 0.614500 -0.053373 0.117923
v 0.615141 -0.098358 -0.028106
v 0.612265 -0.020851 -0.159378
v 1.179828 0.130039 0.189698
v 0.875118 0.103165 0.189063
v 0.609826 0.103655 0.189570
v 1.142269 0.153393 -0.193115
v 0.861514 0.142773 -0.192823
v 0.607563 0.148768 -0.191673
v 1.620102 0.285135 -0.126891
v 1.624990 0.332321 0.017250
v 1.636127 0.270391 0.147518
v 1.669714 -0.009046 0.107008
v 1.647794 -0.067904 -0.033591
v 1.619690 -0.017636 -0.160336
v 1.659154 0.130105 0.178039
v 1.613749 0.134328 -0.194416
v 1.299925 0.299599 -0.125383
v 1.303786 0.345543 0.019425
v 1.316016 0.279743 0.151929
v 1.354988 -0.009978 0.118688
v 1.334397 -0.064210 -0.025667
v 1.305485 -0.006690 -0.157734
v 1.341684 0.132720 0.187211
v 1.296588 0.148626 -0.193481
v 1.538300 0.289942 -0.126681
v 1.543281 0.336974 0.017619
v 1.593578 -0.007152 0.111546
v 1.570259 -0.065148 -0.030328
v 1.581347 0.132752 0.181382
v 1.532328 0.139094 -0.194132
v 1.555652 0.274366 0.148833
v 1.539624 -0.013491 -0.159140
v 1.716602 0.266416 0.146202
v 1.699757 -0.021781 -0.161532
v 1.701903 0.280327 -0.127102
v 1.706700 0.327667 0.016880
v 1.745851 -0.010940 0.102469
v 1.725329 -0.070661 -0.036853
v 1.736961 0.127457 0.174697
v 1.695170 0.129562 -0.194701
vt 0.756259 0.474109
vt 0.756259 0.474109
vt 0.756259 0.474109
vt 0.756259 0.474109
vt 0.756259 0.474109
vt 0.756259 0.474109
vt 0.756259 0.474109
vt 0.756259 0.474109
vt 0.756259 0.474109
vt 0.756259 0.474109
vt 0.756259 0.474109
vt 0.756259 0.474109
vt 0.756259 0.474109
vt 0.756259 0.474109
vt 0.756259 0.474109
vt 0.756259 0.474109
vt 0.756259 0.474109
vt 0.756259 0.474109
vt 0.756259 0.474109
vt 0.756259 0.474109
vt 0.756259 0.474109
vt 0.756259 0.474109
vt 0.756259 0.474109
vt 0.756259 0.474109
vt 0.756259 0.474109
vt 0.756259 0.474109
vt 0.756259 0.474109
vt 0.756259 0.474109
vt 0.756259 0.474109
vt 0.756259 0.474109
vt 0.756259 0.474109
vt 0.756259 0.474109
vt 0.756259 0.474109
vt 0.756259 0.474109
vt 0.756259 0.474109
vt 0.756259 0.474109
vt 0.756259 0.474109
vt 0.756259 0.474109
vt 0.756259 0.474109
vt 0.756259 0.474109
vt 0.756259 0.474109
vt 0.756259 0.474109
vt 0.756259 0.474109
vt 0.756259 0.474109
vt 0.756259 0.474109
vt 0.756259 0.474109
vt 0.756259 0.474109
vt 0.756259 0.474109
vt 0.756259 0.474109
vt 0.756259 0.474109
vt 0.756259 0.474109
vt 0.756259 0.474109
vt 0.756259 0.474109
vt 0.756259 0.474109
vt 0.756259 0.474109
vt 0.756259 0.474109
vt 0.756259 0.474109
vt 0.756259 0.474109
vt 0.756259 0.474109
vt 0.756259 0.474109
vt 0.756259 0.474109
vt 0.756259 0.474109
vt 0.756259 0.474109
vt 0.756259 0.474109
vt 0.756259 0.474109
vt 0.756259 0.474109
vt 0.756259 0.474109
vt 0.756259 0.474109
vt 0.756259 0.474109
vt 0.756259 0.474109
vt 0.756259 0.474109
vt 0.756259 0.474109
vt 0.756259 0.474109
vt 0.756259 0.474109
vt 0.756259 0.474109
vt 0.756259 0.474109
vt 0.756259 0.474109
vt 0.756259 0.474109
vt 0.756259 0.474109
vt 0.756259 0.474109
vt 0.756259 0.474109
vt 0.756259 0.474109
vt 0.756259 0.474109
vt 0.756259 0.474109
vt 0.756259 0.474109
vt 0.756259 0.474109
vt 0.756259 0.474109
vt 0.756259 0.474109
vt 0.756259 0.474109
vn -0.0685 0.7697 -0.6347
vn -0.0404 0.1207 -0.9919
vn -0.2843 0.1110 -0.9523
vn -0.3461 0.7289 -0.5907
vn -0.0967 -0.5931 -0.7993
vn -0.3386 -0.5733 -0.7461
vn -0.7197 -0.4418 -0.5355
vn -0.7958 0.0537 -0.6032
vn -0.7405 0.5246 -0.4201
vn -0.0933 -0.7659 0.6362
vn -0.0369 -0.1186 0.9923
vn -0.2811 -0.1183 0.9524
vn -0.3363 -0.7342 0.5898
vn -0.0664 0.5971 0.7994
vn -0.3438 0.5677 0.7480
vn -0.7389 0.4096 0.5351
vn -0.7938 -0.0914 0.6013
vn -0.7181 -0.5566 0.4177
vn -0.1357 -0.9838 -0.1175
vn -0.3823 -0.9175 -0.1098
vn -0.8079 -0.5853 -0.0691
vn -0.0971 0.9881 0.1189
vn -0.3914 0.9136 0.1107
vn -0.8328 0.5494 0.0676
vn -0.9997 -0.0249 -0.0013
vn 0.0410 0.7417 -0.6695
vn 0.0293 0.7448 -0.6667
vn 0.0398 0.9970 0.0658
vn 0.0572 0.9964 0.0618
vn 0.0335 0.6326 0.7738
vn 0.0503 0.6293 0.7755
vn 0.0128 -0.7318 0.6814
vn 0.0189 -0.7280 0.6854
vn -0.0118 -0.9999 0.0001
vn -0.0322 -0.9994 0.0099
vn -0.0219 -0.6471 -0.7621
vn -0.0409 -0.6536 -0.7557
vn 0.0292 -0.1007 0.9945
vn 0.0377 -0.1138 0.9928
vn 0.0006 0.0985 -0.9951
vn -0.0001 0.0964 -0.9953
vn 0.0178 0.7467 -0.6650
vn -0.0055 0.7543 -0.6565
vn -0.0073 0.9959 0.0903
vn 0.0235 0.9968 0.0758
vn -0.0016 0.7501 -0.6613
vn 0.0021 0.9939 0.1099
vn -0.0016 0.5839 0.8119
vn -0.0046 0.6162 0.7876
vn 0.0174 0.6245 0.7808
vn 0.0145 0.7569 -0.6533
vn 0.0207 0.9929 0.1172
vn 0.0143 0.5825 0.8127
vn 0.0256 -0.7375 0.6748
vn 0.0456 -0.7374 0.6739
vn 0.0492 -0.9972 -0.0570
vn 0.0102 -0.9996 -0.0264
vn 0.0420 -0.7551 0.6543
vn 0.0517 -0.9941 -0.0950
vn 0.0241 -0.5991 -0.8003
vn 0.0227 -0.6127 -0.7900
vn -0.0066 -0.6389 -0.7693
vn -0.0121 -0.7586 0.6514
vn -0.0235 -0.9933 -0.1130
vn -0.0204 -0.5860 -0.8101
vn 0.0157 -0.0988 0.9950
vn 0.0191 -0.1037 0.9944
vn 0.0091 -0.1233 0.9923
vn 0.0016 -0.1217 0.9926
vn -0.0009 0.1124 -0.9937
vn 0.0006 0.0984 -0.9952
vn -0.0007 0.1087 -0.9941
vn -0.0023 0.1181 -0.9930
vn -0.0006 0.0903 -0.9959
vn 0.0000 0.0991 -0.9951
vn 0.0410 0.7415 -0.6698
vn 0.0409 0.7410 -0.6702
vn -0.0422 -0.6857 -0.7267
vn -0.0408 -0.6529 -0.7563
vn 0.0367 -0.1613 0.9862
vn 0.0372 -0.1246 0.9915
vn 0.0128 -0.7322 0.6810
vn 0.0125 -0.7353 0.6776
vn 0.0495 0.5906 0.8054
vn 0.0503 0.6248 0.7791
vn -0.0299 -0.9983 0.0506
vn -0.0319 -0.9994 0.0155
vn 0.0572 0.9957 0.0723
vn 0.0572 0.9965 0.0607
usemtl skin.011
s 1
f 3/1/1 4/2/2 5/3/3 6/4/4
f 4/2/2 7/5/5 8/6/6 5/3/3
f 5/3/3 8/6/6 9/7/7 10/8/8
f 6/4/4 5/3/3 10/8/8 11/9/9
f 12/10/10 13/11/11 14/12/12 15/13/13
f 13/11/11 16/14/14 17/15/15 14/12/12
f 14/12/12 17/15/15 18/16/16 19/17/17
f 15/13/13 14/12/12 19/17/17 20/18/18
f 7/5/5 21/19/19 22/20/20 8/6/6
f 21/19/19 12/10/10 15/13/13 22/20/20
f 22/20/20 15/13/13 20/18/18 23/21/21
f 8/6/6 22/20/20 23/21/21 9/7/7
f 16/14/14 24/22/22 25/23/23 17/15/15
f 24/22/22 3/1/1 6/4/4 25/23/23
f 25/23/23 6/4/4 11/9/9 26/24/24
f 17/15/15 25/23/23 26/24/24 18/16/16
f 11/9/9 10/8/8 27/25/25 26/24/24
f 10/8/8 9/7/7 23/21/21 27/25/25
f 27/25/25 23/21/21 20/18/18 19/17/17
f 26/24/24 27/25/25 19/17/17 18/16/16
f 76/26/26 28/27/27 29/28/28 77/29/29
f 77/29/29 29/28/28 30/30/30 82/31/31
f 78/32/32 31/33/33 32/34/34 79/35/35
f 79/35/35 32/34/34 33/36/36 83/37/37
f 82/31/31 30/30/30 34/38/38 80/39/39
f 80/39/39 34/38/38 31/33/33 78/32/32
f 83/37/37 33/36/36 35/40/40 81/41/41
f 81/41/41 35/40/40 28/27/27 76/26/26
f 68/42/42 36/43/43 37/44/44 69/45/45
f 36/43/43 38/46/46 39/47/47 37/44/44
f 37/44/44 39/47/47 40/48/48 41/49/49
f 69/45/45 37/44/44 41/49/49 70/50/50
f 38/46/46 42/51/51 43/52/52 39/47/47
f 42/51/51 3/1/1 24/22/22 43/52/52
f 43/52/52 24/22/22 16/14/14 44/53/53
f 39/47/47 43/52/52 44/53/53 40/48/48
f 71/54/54 45/55/55 46/56/56 72/57/57
f 45/55/55 47/58/58 48/59/59 46/56/56
f 46/56/56 48/59/59 49/60/60 50/61/61
f 72/57/57 46/56/56 50/61/61 73/62/62
f 47/58/58 51/63/63 52/64/64 48/59/59
f 51/63/63 12/10/10 21/19/19 52/64/64
f 52/64/64 21/19/19 7/5/5 53/65/65
f 48/59/59 52/64/64 53/65/65 49/60/60
f 70/50/50 41/49/49 54/66/66 74/67/67
f 41/49/49 40/48/48 55/68/68 54/66/66
f 54/66/66 55/68/68 47/58/58 45/55/55
f 74/67/67 54/66/66 45/55/55 71/54/54
f 40/48/48 44/53/53 56/69/69 55/68/68
f 44/53/53 16/14/14 13/11/11 56/69/69
f 56/69/69 13/11/11 12/10/10 51/63/63
f 55/68/68 56/69/69 51/63/63 47/58/58
f 73/62/62 50/61/61 57/70/70 75/71/71
f 50/61/61 49/60/60 58/72/72 57/70/70
f 57/70/70 58/72/72 38/46/46 36/43/43
f 75/71/71 57/70/70 36/43/43 68/42/42
f 49/60/60 53/65/65 59/73/73 58/72/72
f 53/65/65 7/5/5 4/2/2 59/73/73
f 59/73/73 4/2/2 3/1/1 42/51/51
f 58/72/72 59/73/73 42/51/51 38/46/46
f 91/74/74 67/75/75 60/76/76 86/77/77
f 85/78/78 65/79/79 67/75/75 91/74/74
f 90/80/80 66/81/81 63/82/82 88/83/83
f 84/84/84 62/85/85 66/81/81 90/80/80
f 89/86/86 64/87/87 65/79/79 85/78/78
f 88/83/83 63/82/82 64/87/87 89/86/86
f 87/88/88 61/89/89 62/85/85 84/84/84
f 86/77/77 60/76/76 61/89/89 87/88/88
f 35/40/40 75/71/71 68/42/42 28/27/27
f 33/36/36 73/62/62 75/71/71 35/40/40
f 34/38/38 74/67/67 71/54/54 31/33/33
f 30/30/30 70/50/50 74/67/67 34/38/38
f 32/34/34 72/57/57 73/62/62 33/36/36
f 31/33/33 71/54/54 72/57/57 32/34/34
f 29/28/28 69/45/45 70/50/50 30/30/30
f 28/27/27 68/42/42 69/45/45 29/28/28
f 67/75/75 81/41/41 76/26/26 60/76/76
f 65/79/79 83/37/37 81/41/41 67/75/75
f 66/81/81 80/39/39 78/32/32 63/82/82
f 62/85/85 82/31/31 80/39/39 66/81/81
f 64/87/87 79/35/35 83/37/37 65/79/79
f 63/82/82 78/32/32 79/35/35 64/87/87
f 61/89/89 77/29/29 82/31/31 62/85/85
f 60/76/76 76/26/26 77/29/29 61/89/89
