# Blender v2.81 (sub 16) OBJ File: ''
# www.blender.org
mtllib right_thigh.mtl
o circulo_Circle.002
v -2.239094 0.171259 0.280792
v -2.153482 0.171259 0.177033
v -2.081256 0.171259 0.063547
v -2.072983 0.171259 -0.070718
v -2.081256 0.171259 -0.204983
v -2.153482 0.171259 -0.318468
v -2.239094 0.171259 -0.422228
v -2.364231 0.171259 -0.471586
v -2.494481 0.171259 -0.505208
v -2.624731 0.171259 -0.471586
v -2.749868 0.171259 -0.422228
v -2.835480 0.171259 -0.318468
v -2.907706 0.171259 -0.204982
v -2.915980 0.171259 -0.070718
v -2.907706 0.171259 0.063547
v -2.835480 0.171259 0.177033
v -2.749868 0.171259 0.280793
v -2.624731 0.171259 0.330151
v -2.494481 0.171259 0.363773
v -2.364231 0.171259 0.330151
l 19 20
l 1 20
l 19 18
l 17 18
l 17 16
l 15 16
l 15 14
l 13 14
l 13 12
l 11 12
l 11 10
l 9 10
l 9 8
l 7 8
l 7 6
l 5 6
l 5 4
l 3 4
l 3 2
l 1 2
o Circle.001_Circle.002
v -2.137695 0.331837 -0.070718
v -2.093311 0.195238 -0.070718
v -2.137695 0.058638 -0.070718
v -2.253893 -0.025785 -0.070718
v -2.397523 -0.025785 -0.070718
v -2.513722 0.058638 -0.070718
v -2.558105 0.195238 -0.070718
v -2.513721 0.331837 -0.070718
v -2.397523 0.416261 -0.070718
v -2.253893 0.416261 -0.070718
l 21 30
l 29 30
l 28 29
l 27 28
l 26 27
l 25 26
l 24 25
l 23 24
l 22 23
l 21 22
o Circle_Circle.003
v -2.516286 0.304812 -0.070718
v -2.556166 0.182075 -0.070718
v -2.516286 0.059338 -0.070718
v -2.411880 -0.016517 -0.070718
v -2.282827 -0.016517 -0.070718
v -2.178421 0.059338 -0.070718
v -2.138541 0.182075 -0.070718
v -2.178421 0.304812 -0.070718
v -2.282827 0.380668 -0.070718
v -2.411880 0.380667 -0.070718
l 31 40
l 39 40
l 38 39
l 37 38
l 36 37
l 35 36
l 34 35
l 33 34
l 32 33
l 31 32
o circulo_Circle.006
v 0.020462 0.040613 0.363773
v 0.150712 0.040613 0.330151
v 0.275849 0.040613 0.280792
v -0.109788 0.040613 0.330151
v -0.234925 0.040613 0.280793
v -0.320537 0.040613 0.177033
v -0.392763 0.040613 0.063547
v -0.401037 0.040613 -0.070718
v -0.392763 0.040613 -0.204982
v -0.320537 0.040613 -0.318468
v -0.234925 0.040613 -0.422228
v -0.109788 0.040613 -0.471586
v 0.020462 0.040613 -0.505208
v 0.150712 0.040613 -0.471586
v 0.275849 0.040613 -0.422228
v 0.361461 0.040613 -0.318468
v 0.433687 0.040613 -0.204983
v 0.441960 0.040613 -0.070718
v 0.433687 0.040613 0.063547
v 0.361461 0.040613 0.177033
l 43 60
l 59 60
l 59 58
l 57 58
l 57 56
l 55 56
l 55 54
l 53 54
l 53 52
l 51 52
l 51 50
l 49 50
l 49 48
l 47 48
l 47 46
l 45 46
l 45 44
l 41 44
l 43 42
l 41 42
o Circle.001_Circle.006
v 0.377248 0.201191 -0.070718
v 0.261050 0.285615 -0.070718
v 0.117420 0.285615 -0.070718
v 0.001222 0.201191 -0.070718
v -0.043162 0.064592 -0.070718
v 0.001221 -0.072008 -0.070718
v 0.117420 -0.156431 -0.070718
v 0.261050 -0.156431 -0.070718
v 0.377248 -0.072008 -0.070718
v 0.421632 0.064592 -0.070718
l 61 70
l 70 69
l 69 68
l 68 67
l 67 66
l 66 65
l 65 64
l 64 63
l 63 62
l 61 62
o Circle_Circle.006
v -0.001343 0.174166 -0.070718
v 0.103063 0.250021 -0.070718
v 0.232116 0.250022 -0.070718
v 0.336522 0.174166 -0.070718
v 0.376402 0.051429 -0.070718
v 0.336522 -0.071308 -0.070718
v 0.232116 -0.147163 -0.070718
v 0.103063 -0.147163 -0.070718
v -0.001343 -0.071308 -0.070718
v -0.041223 0.051429 -0.070718
l 71 80
l 80 79
l 79 78
l 78 77
l 77 76
l 76 75
l 75 74
l 74 73
l 73 72
l 71 72
o circulo_Circle.007
v 0.020462 0.364314 -0.035432
v 0.150712 0.330696 -0.035910
v 0.275849 0.281342 -0.036613
v -0.109788 0.330696 -0.035910
v -0.234925 0.281343 -0.036613
v -0.320537 0.177593 -0.038089
v -0.392763 0.064119 -0.039704
v -0.401037 -0.070133 -0.041615
v -0.392763 -0.204383 -0.043526
v -0.320537 -0.317858 -0.045141
v -0.234925 -0.421607 -0.046618
v -0.109788 -0.470960 -0.047320
v 0.020462 -0.504579 -0.047799
v 0.150712 -0.470960 -0.047320
v 0.275849 -0.421607 -0.046618
v 0.361461 -0.317858 -0.045141
v 0.433687 -0.204384 -0.043526
v 0.441960 -0.070133 -0.041615
v 0.433687 0.064119 -0.039704
v 0.361461 0.177593 -0.038089
l 83 100
l 99 100
l 99 98
l 97 98
l 97 96
l 95 96
l 95 94
l 93 94
l 93 92
l 91 92
l 91 90
l 89 90
l 89 88
l 87 88
l 87 86
l 85 86
l 85 84
l 81 84
l 83 82
l 81 82
o Circle.001_Circle.007
v 0.377248 -0.067848 -0.202177
v 0.261050 -0.066646 -0.286593
v 0.117420 -0.066646 -0.286593
v 0.001222 -0.067848 -0.202177
v -0.043162 -0.069792 -0.065592
v 0.001221 -0.071736 0.070994
v 0.117420 -0.072937 0.155409
v 0.261050 -0.072937 0.155409
v 0.377248 -0.071736 0.070994
v 0.421632 -0.069792 -0.065592
l 101 110
l 110 109
l 109 108
l 108 107
l 107 106
l 106 105
l 105 104
l 104 103
l 103 102
l 101 102
o Circle_Circle.007
v -0.001343 -0.068232 -0.175155
v 0.103063 -0.067153 -0.251002
v 0.232116 -0.067153 -0.251003
v 0.336522 -0.068232 -0.175155
v 0.376402 -0.069979 -0.052430
v 0.336522 -0.071726 0.070294
v 0.232116 -0.072805 0.146142
v 0.103063 -0.072805 0.146142
v -0.001343 -0.071726 0.070294
v -0.041223 -0.069979 -0.052430
l 111 120
l 120 119
l 119 118
l 118 117
l 117 116
l 116 115
l 115 114
l 114 113
l 113 112
l 111 112
o line.R.002_Line.008
v 1.974421 -0.066220 -5.305444
v 1.929190 -1.955838 -5.117569
l 121 122
o line.R.001_Line.008
v -1.926629 -0.069371 -5.305095
v -1.916094 -1.958177 -5.117326
l 123 124
o circulo_Circle.008
v 0.020462 0.363246 -0.045087
v 0.150712 0.329626 -0.044674
v 0.275849 0.280271 -0.044066
v -0.109788 0.329626 -0.044674
v -0.234925 0.280272 -0.044066
v -0.320537 0.176520 -0.042789
v -0.392763 0.063042 -0.041392
v -0.401037 -0.071213 -0.039739
v -0.392763 -0.205466 -0.038087
v -0.320537 -0.318944 -0.036690
v -0.234925 -0.422696 -0.035413
v -0.109788 -0.472050 -0.034805
v 0.020462 -0.505670 -0.034392
v 0.150712 -0.472050 -0.034805
v 0.275849 -0.422696 -0.035413
v 0.361461 -0.318944 -0.036690
v 0.433687 -0.205467 -0.038087
v 0.441960 -0.071213 -0.039739
v 0.433687 0.063042 -0.041392
v 0.361461 0.176520 -0.042789
l 127 144
l 143 144
l 143 142
l 141 142
l 141 140
l 139 140
l 139 138
l 137 138
l 137 136
l 135 136
l 135 134
l 133 134
l 133 132
l 131 132
l 131 130
l 129 130
l 129 128
l 125 128
l 127 126
l 125 126
o Circle.001_Circle.008
v 0.377248 -0.073189 -0.200305
v 0.261050 -0.074228 -0.284723
v 0.117420 -0.074228 -0.284723
v 0.001222 -0.073189 -0.200305
v -0.043162 -0.071508 -0.063717
v 0.001221 -0.069826 0.072873
v 0.117420 -0.068787 0.157290
v 0.261050 -0.068787 0.157290
v 0.377248 -0.069826 0.072873
v 0.421632 -0.071508 -0.063717
l 145 154
l 154 153
l 153 152
l 152 151
l 151 150
l 150 149
l 149 148
l 148 147
l 147 146
l 145 146
o Circle_Circle.008
v -0.001343 -0.072856 -0.173282
v 0.103063 -0.073790 -0.249132
v 0.232116 -0.073790 -0.249133
v 0.336522 -0.072856 -0.173282
v 0.376402 -0.071346 -0.050555
v 0.336522 -0.069835 0.072173
v 0.232116 -0.068901 0.148022
v 0.103063 -0.068901 0.148022
v -0.001343 -0.069835 0.072173
v -0.041223 -0.071346 -0.050555
l 155 164
l 164 163
l 163 162
l 162 161
l 161 160
l 160 159
l 159 158
l 158 157
l 157 156
l 155 156
o Stickman_Cube.007
v 0.441891 0.160746 -1.244058
v 0.372041 0.151107 -1.059739
v 0.412114 0.010417 -1.039751
v 0.459576 0.009293 -1.147840
v 0.317286 0.146594 -0.614792
v 0.361928 0.011520 -0.609969
v 0.329993 -0.129956 -0.605971
v 0.372490 -0.132563 -1.052011
v 0.437951 -0.150518 -1.237132
v 0.315426 0.152331 -0.200944
v 0.350878 0.018532 -0.195023
v 0.318172 -0.122604 -0.191731
v -0.170776 0.053231 -0.656121
v -0.168242 0.070059 -1.092417
v -0.212298 -0.057842 -1.077178
v -0.218331 -0.069507 -0.634846
v -0.177797 -0.174959 -1.057758
v -0.191092 -0.177512 -0.607903
v -0.192068 -0.164593 -0.199133
v -0.216544 -0.050191 -0.222770
v -0.161156 0.074803 -0.241801
v 0.104315 0.180530 -1.286601
v -0.050157 0.154223 -1.291122
v -0.059667 0.146136 -1.088755
v 0.087422 0.180442 -1.076689
v -0.163672 0.082763 -1.290707
v -0.065723 0.134320 -0.651183
v 0.070937 0.178600 -0.633704
v 0.209959 0.194875 -0.621509
v 0.246417 0.198560 -1.071795
v -0.163459 0.087090 -0.065241
v -0.037108 0.155855 -0.060369
v -0.041350 0.148462 -0.239120
v 0.111637 0.185245 -0.042263
v 0.102119 0.183827 -0.224236
v 0.234862 0.198716 -0.027085
v 0.227635 0.198371 -0.210611
v 0.317342 0.154297 -0.017145
v 0.220647 -0.197767 -0.602390
v 0.252637 -0.198709 -1.055932
v 0.068202 -0.215757 -0.599001
v 0.096586 -0.222488 -1.051192
v -0.083931 -0.218241 -0.597593
v -0.063006 -0.221612 -1.050266
v 0.317067 -0.119575 -0.008200
v 0.209903 -0.186858 -0.006732
v 0.210897 -0.189972 -0.189852
v 0.060696 -0.204114 -0.006021
v 0.061482 -0.207347 -0.188617
v -0.088261 -0.205123 -0.007176
v -0.087540 -0.208786 -0.189088
v -0.193669 -0.158672 -0.018763
v -0.206537 -0.048972 -1.278717
v -0.167524 -0.172965 -1.264930
v 0.350176 0.021403 -0.011271
v -0.219958 -0.039723 -0.045000
v 0.274617 0.196346 -1.286307
v 0.114769 -0.225290 -1.260929
v 0.278704 -0.203391 -1.264733
v -0.048500 -0.223262 -1.259907
vt 0.756259 0.474109
vt 0.756259 0.474109
vt 0.756259 0.474109
vt 0.756259 0.474109
vt 0.756259 0.474109
vt 0.756259 0.474109
vt 0.756259 0.474109
vt 0.756259 0.474109
vt 0.756259 0.474109
vt 0.756259 0.474109
vt 0.756259 0.474109
vt 0.756259 0.474109
vt 0.756259 0.474109
vt 0.756259 0.474109
vt 0.756259 0.474109
vt 0.756259 0.474109
vt 0.756259 0.474109
vt 0.756259 0.474109
vt 0.756259 0.474109
vt 0.756259 0.474109
vt 0.756259 0.474109
vt 0.756259 0.474109
vt 0.756259 0.474109
vt 0.756259 0.474109
vt 0.756259 0.474109
vt 0.756259 0.474109
vt 0.756259 0.474109
vt 0.756259 0.474109
vt 0.756259 0.474109
vt 0.756259 0.474109
vt 0.756259 0.474109
vt 0.756259 0.474109
vt 0.756259 0.474109
vt 0.756259 0.474109
vt 0.756259 0.474109
vt 0.756259 0.474109
vt 0.756259 0.474109
vt 0.756259 0.474109
vt 0.756259 0.474109
vt 0.756259 0.474109
vt 0.756259 0.474109
vt 0.756259 0.474109
vt 0.756259 0.474109
vt 0.756259 0.474109
vt 0.756259 0.474109
vt 0.756259 0.474109
vt 0.756259 0.474109
vt 0.756259 0.474109
vt 0.756259 0.474109
vt 0.756259 0.474109
vt 0.756259 0.474109
vt 0.756259 0.474109
vt 0.756259 0.474109
vt 0.756259 0.474109
vt 0.756259 0.474109
vt 0.756259 0.474109
vt 0.756259 0.474109
vt 0.756259 0.474109
vt 0.756259 0.474109
vt 0.756259 0.474109
vn 0.5804 0.7833 0.2226
vn 0.6742 0.7186 0.1708
vn 0.9693 0.0202 0.2449
vn 0.9254 0.0125 0.3789
vn 0.7419 0.6692 0.0420
vn 0.9973 0.0300 0.0676
vn 0.8018 -0.5950 0.0560
vn 0.7391 -0.6488 0.1814
vn 0.6466 -0.7189 0.2551
vn 0.7737 0.6335 -0.0086
vn 0.9997 0.0218 0.0111
vn 0.8135 -0.5811 0.0232
vn -0.7946 0.6072 0.0014
vn -0.7995 0.6006 0.0098
vn -0.9995 0.0228 -0.0204
vn -0.9986 0.0533 -0.0067
vn -0.7412 -0.6706 -0.0292
vn -0.7514 -0.6599 -0.0005
vn -0.7660 -0.6427 0.0139
vn -0.9959 0.0899 -0.0109
vn -0.7612 0.6480 -0.0265
vn -0.1481 0.9890 -0.0050
vn -0.3774 0.9259 0.0153
vn -0.4117 0.9112 0.0152
vn -0.1720 0.9851 -0.0002
vn -0.7794 0.6264 0.0098
vn -0.4357 0.9001 0.0031
vn -0.1962 0.9806 -0.0003
vn 0.1408 0.9900 0.0063
vn 0.1039 0.9942 0.0278
vn -0.7466 0.6638 -0.0451
vn -0.3512 0.9358 -0.0298
vn -0.3927 0.9195 -0.0196
vn -0.1579 0.9874 -0.0068
vn -0.1772 0.9842 -0.0062
vn 0.2171 0.9761 -0.0097
vn 0.1770 0.9842 -0.0101
vn 0.7992 0.6009 -0.0127
vn 0.3258 -0.9450 0.0287
vn 0.2925 -0.9545 0.0587
vn 0.0664 -0.9976 0.0181
vn 0.0676 -0.9976 0.0176
vn -0.1859 -0.9825 0.0115
vn -0.1924 -0.9813 -0.0039
vn 0.8130 -0.5820 0.0139
vn 0.3307 -0.9436 0.0180
vn 0.3304 -0.9436 0.0221
vn 0.0617 -0.9979 0.0184
vn 0.0632 -0.9978 0.0202
vn -0.1931 -0.9810 0.0207
vn -0.1924 -0.9811 0.0219
vn -0.7443 -0.6678 0.0112
vn -0.9989 0.0387 -0.0259
vn -0.7469 -0.6638 -0.0383
vn 1.0000 0.0081 0.0011
vn -0.9971 0.0731 -0.0218
vn 0.0802 0.9962 0.0336
vn 0.0716 -0.9972 0.0221
vn 0.2645 -0.9603 0.0887
vn -0.1929 -0.9812 -0.0063
usemtl skin.007
s 1
f 165/1/1 166/2/2 167/3/3 168/4/4
f 166/2/2 169/5/5 170/6/6 167/3/3
f 167/3/3 170/6/6 171/7/7 172/8/8
f 168/4/4 167/3/3 172/8/8 173/9/9
f 169/5/5 174/10/10 175/11/11 170/6/6
f 170/6/6 175/11/11 176/12/12 171/7/7
f 177/13/13 178/14/14 179/15/15 180/16/16
f 180/16/16 179/15/15 181/17/17 182/18/18
f 182/18/18 183/19/19 184/20/20 180/16/16
f 180/16/16 184/20/20 185/21/21 177/13/13
f 186/22/22 187/23/23 188/24/24 189/25/25
f 187/23/23 190/26/26 178/14/14 188/24/24
f 188/24/24 178/14/14 177/13/13 191/27/27
f 189/25/25 188/24/24 191/27/27 192/28/28
f 192/28/28 193/29/29 194/30/30 189/25/25
f 193/29/29 169/5/5 166/2/2 194/30/30
f 195/31/31 196/32/32 197/33/33 185/21/21
f 196/32/32 198/34/34 199/35/35 197/33/33
f 197/33/33 199/35/35 192/28/28 191/27/27
f 185/21/21 197/33/33 191/27/27 177/13/13
f 198/34/34 200/36/36 201/37/37 199/35/35
f 200/36/36 202/38/38 174/10/10 201/37/37
f 201/37/37 174/10/10 169/5/5 193/29/29
f 199/35/35 201/37/37 193/29/29 192/28/28
f 171/7/7 203/39/39 204/40/40 172/8/8
f 203/39/39 205/41/41 206/42/42 204/40/40
f 205/41/41 207/43/43 208/44/44 206/42/42
f 207/43/43 182/18/18 181/17/17 208/44/44
f 209/45/45 210/46/46 211/47/47 176/12/12
f 210/46/46 212/48/48 213/49/49 211/47/47
f 211/47/47 213/49/49 205/41/41 203/39/39
f 176/12/12 211/47/47 203/39/39 171/7/7
f 212/48/48 214/50/50 215/51/51 213/49/49
f 214/50/50 216/52/52 183/19/19 215/51/51
f 215/51/51 183/19/19 182/18/18 207/43/43
f 213/49/49 215/51/51 207/43/43 205/41/41
f 178/14/14 190/26/26 217/53/53 179/15/15
f 179/15/15 217/53/53 218/54/54 181/17/17
f 174/10/10 202/38/38 219/55/55 175/11/11
f 175/11/11 219/55/55 209/45/45 176/12/12
f 183/19/19 216/52/52 220/56/56 184/20/20
f 184/20/20 220/56/56 195/31/31 185/21/21
f 194/30/30 166/2/2 165/1/1 221/57/57
f 189/25/25 194/30/30 221/57/57 186/22/22
f 204/40/40 206/42/42 222/58/58 223/59/59
f 172/8/8 204/40/40 223/59/59 173/9/9
f 208/44/44 181/17/17 218/54/54 224/60/60
f 206/42/42 208/44/44 224/60/60 222/58/58
