# Blender v2.81 (sub 16) OBJ File: ''
# www.blender.org
mtllib left_leg.mtl
o circulo_Circle.002
v -2.239094 0.171259 0.280792
v -2.153482 0.171259 0.177033
v -2.081256 0.171259 0.063547
v -2.072983 0.171259 -0.070718
v -2.081256 0.171259 -0.204983
v -2.153482 0.171259 -0.318468
v -2.239094 0.171259 -0.422228
v -2.364231 0.171259 -0.471586
v -2.494481 0.171259 -0.505208
v -2.624731 0.171259 -0.471586
v -2.749868 0.171259 -0.422228
v -2.835480 0.171259 -0.318468
v -2.907706 0.171259 -0.204982
v -2.915980 0.171259 -0.070718
v -2.907706 0.171259 0.063547
v -2.835480 0.171259 0.177033
v -2.749868 0.171259 0.280793
v -2.624731 0.171259 0.330151
v -2.494481 0.171259 0.363773
v -2.364231 0.171259 0.330151
l 19 20
l 1 20
l 19 18
l 17 18
l 17 16
l 15 16
l 15 14
l 13 14
l 13 12
l 11 12
l 11 10
l 9 10
l 9 8
l 7 8
l 7 6
l 5 6
l 5 4
l 3 4
l 3 2
l 1 2
o Circle.001_Circle.002
v -2.137695 0.331837 -0.070718
v -2.093311 0.195238 -0.070718
v -2.137695 0.058638 -0.070718
v -2.253893 -0.025785 -0.070718
v -2.397523 -0.025785 -0.070718
v -2.513722 0.058638 -0.070718
v -2.558105 0.195238 -0.070718
v -2.513721 0.331837 -0.070718
v -2.397523 0.416261 -0.070718
v -2.253893 0.416261 -0.070718
l 21 30
l 29 30
l 28 29
l 27 28
l 26 27
l 25 26
l 24 25
l 23 24
l 22 23
l 21 22
o Circle_Circle.003
v -2.516286 0.304812 -0.070718
v -2.556166 0.182075 -0.070718
v -2.516286 0.059338 -0.070718
v -2.411880 -0.016517 -0.070718
v -2.282827 -0.016517 -0.070718
v -2.178421 0.059338 -0.070718
v -2.138541 0.182075 -0.070718
v -2.178421 0.304812 -0.070718
v -2.282827 0.380668 -0.070718
v -2.411880 0.380667 -0.070718
l 31 40
l 39 40
l 38 39
l 37 38
l 36 37
l 35 36
l 34 35
l 33 34
l 32 33
l 31 32
o circulo_Circle.006
v 0.020462 0.040613 0.363773
v 0.150712 0.040613 0.330151
v 0.275849 0.040613 0.280792
v -0.109788 0.040613 0.330151
v -0.234925 0.040613 0.280793
v -0.320537 0.040613 0.177033
v -0.392763 0.040613 0.063547
v -0.401037 0.040613 -0.070718
v -0.392763 0.040613 -0.204982
v -0.320537 0.040613 -0.318468
v -0.234925 0.040613 -0.422228
v -0.109788 0.040613 -0.471586
v 0.020462 0.040613 -0.505208
v 0.150712 0.040613 -0.471586
v 0.275849 0.040613 -0.422228
v 0.361461 0.040613 -0.318468
v 0.433687 0.040613 -0.204983
v 0.441960 0.040613 -0.070718
v 0.433687 0.040613 0.063547
v 0.361461 0.040613 0.177033
l 43 60
l 59 60
l 59 58
l 57 58
l 57 56
l 55 56
l 55 54
l 53 54
l 53 52
l 51 52
l 51 50
l 49 50
l 49 48
l 47 48
l 47 46
l 45 46
l 45 44
l 41 44
l 43 42
l 41 42
o Circle.001_Circle.006
v 0.377248 0.201191 -0.070718
v 0.261050 0.285615 -0.070718
v 0.117420 0.285615 -0.070718
v 0.001222 0.201191 -0.070718
v -0.043162 0.064592 -0.070718
v 0.001221 -0.072008 -0.070718
v 0.117420 -0.156431 -0.070718
v 0.261050 -0.156431 -0.070718
v 0.377248 -0.072008 -0.070718
v 0.421632 0.064592 -0.070718
l 61 70
l 70 69
l 69 68
l 68 67
l 67 66
l 66 65
l 65 64
l 64 63
l 63 62
l 61 62
o Circle_Circle.006
v -0.001343 0.174166 -0.070718
v 0.103063 0.250021 -0.070718
v 0.232116 0.250022 -0.070718
v 0.336522 0.174166 -0.070718
v 0.376402 0.051429 -0.070718
v 0.336522 -0.071308 -0.070718
v 0.232116 -0.147163 -0.070718
v 0.103063 -0.147163 -0.070718
v -0.001343 -0.071308 -0.070718
v -0.041223 0.051429 -0.070718
l 71 80
l 80 79
l 79 78
l 78 77
l 77 76
l 76 75
l 75 74
l 74 73
l 73 72
l 71 72
o Stickman_Cube.005
v 0.304553 -0.145095 -0.233175
v 0.358028 -0.009817 -0.231638
v 0.336036 -0.012201 -0.048857
v 0.290616 -0.142177 -0.051899
v 0.330103 0.132856 -0.226476
v 0.315072 0.123871 -0.045487
v 0.280461 0.096102 0.033278
v 0.280671 -0.009341 0.043661
v 0.261298 -0.112362 0.028254
v -0.212564 0.182158 -0.202303
v -0.266039 0.046880 -0.203839
v -0.188900 0.035490 -0.025473
v -0.144048 0.165582 -0.025035
v -0.238114 -0.095793 -0.209002
v -0.168504 -0.100467 -0.031447
v -0.103530 -0.079217 0.044505
v -0.097982 0.025060 0.060528
v -0.084367 0.129246 0.049530
v -0.340529 -0.046224 -1.672987
v -0.341657 -0.051228 -1.491340
v -0.365924 0.093438 -1.476894
v -0.361641 0.100028 -1.648145
v -0.306764 0.227330 -1.463289
v -0.299204 0.233130 -1.624000
v 0.243348 0.167262 -1.666801
v 0.242090 0.167379 -1.488884
v 0.268170 0.026225 -1.496419
v 0.268050 0.028156 -1.678443
v 0.212260 -0.108170 -1.499700
v 0.212034 -0.105352 -1.682878
v -0.335814 -0.061077 -1.154315
v -0.363508 0.082088 -1.149137
v -0.308705 -0.074620 -0.818302
v -0.338078 0.068184 -0.813075
v -0.283155 0.203331 -0.811603
v -0.307718 0.216822 -1.145517
v -0.282911 -0.084932 -0.488842
v -0.312768 0.057917 -0.483593
v -0.257361 0.193020 -0.482142
v 0.247894 0.162122 -1.158393
v 0.275824 0.019396 -1.162710
v 0.278808 0.152277 -0.836635
v 0.308181 0.009472 -0.841863
v 0.253258 -0.125674 -0.843335
v 0.220457 -0.115403 -1.165045
v 0.311067 0.141378 -0.507463
v 0.340924 -0.001470 -0.512712
v 0.285517 -0.136573 -0.514162
v -0.128387 -0.167072 -0.215603
v -0.076510 -0.167748 -0.035220
v 0.026832 -0.189932 -0.222763
v 0.055488 -0.188191 -0.040678
v 0.080069 -0.131420 0.055625
v -0.028277 -0.115492 0.057146
v 0.183647 -0.195421 -0.229503
v 0.188739 -0.191847 -0.047036
v 0.188009 -0.135141 0.047512
v 0.220375 0.204134 -0.219873
v 0.223930 0.190980 -0.037809
v 0.065157 0.226995 -0.212715
v 0.092216 0.211365 -0.031049
v 0.105619 0.146531 0.062325
v 0.212465 0.130907 0.053924
v -0.091658 0.232484 -0.205974
v -0.041319 0.215078 -0.025993
v -0.003821 0.150557 0.063558
v 0.199239 -0.002730 0.079959
v 0.099412 0.006226 0.089100
v -0.002441 0.015593 0.088943
v -0.158149 0.253284 -0.815457
v -0.183320 0.265422 -1.145936
v 0.004214 0.247292 -0.822444
v -0.022628 0.257980 -1.149248
v -0.021612 0.259261 -1.464972
v -0.181087 0.270991 -1.459417
v 0.164980 0.223928 -0.829851
v 0.136057 0.233913 -1.153661
v 0.133745 0.236068 -1.476719
v -0.130981 0.242847 -0.486058
v 0.033241 0.236687 -0.493128
v 0.195865 0.213154 -0.500618
v 0.128252 -0.175627 -0.839480
v 0.096252 -0.164654 -1.164232
v -0.034111 -0.169635 -0.832492
v -0.064589 -0.157752 -1.161541
v -0.072549 -0.149631 -1.499810
v 0.088063 -0.157035 -1.500385
v -0.194877 -0.146271 -0.825087
v -0.223703 -0.133472 -1.158385
v -0.231199 -0.124744 -1.498163
v 0.159137 -0.186401 -0.510247
v -0.005085 -0.180240 -0.503177
v -0.167709 -0.156708 -0.495687
v -0.231393 -0.120767 -1.683723
v -0.072856 -0.146043 -1.684981
v 0.087833 -0.153755 -1.684475
v 0.138374 0.232787 -1.645867
v -0.013661 0.255347 -1.625328
v -0.172092 0.271672 -1.616319
vt 0.756259 0.474109
vt 0.756259 0.474109
vt 0.756259 0.474109
vt 0.756259 0.474109
vt 0.756259 0.474109
vt 0.756259 0.474109
vt 0.756259 0.474109
vt 0.756259 0.474109
vt 0.756259 0.474109
vt 0.756259 0.474109
vt 0.756259 0.474109
vt 0.756259 0.474109
vt 0.756259 0.474109
vt 0.756259 0.474109
vt 0.756259 0.474109
vt 0.756259 0.474109
vt 0.756259 0.474109
vt 0.756259 0.474109
vt 0.756259 0.474109
vt 0.756259 0.474109
vt 0.756259 0.474109
vt 0.756259 0.474109
vt 0.756259 0.474109
vt 0.756259 0.474109
vt 0.756259 0.474109
vt 0.756259 0.474109
vt 0.756259 0.474109
vt 0.756259 0.474109
vt 0.756259 0.474109
vt 0.756259 0.474109
vt 0.756259 0.474109
vt 0.756259 0.474109
vt 0.756259 0.474109
vt 0.756259 0.474109
vt 0.756259 0.474109
vt 0.756259 0.474109
vt 0.756259 0.474109
vt 0.756259 0.474109
vt 0.756259 0.474109
vt 0.756259 0.474109
vt 0.756259 0.474109
vt 0.756259 0.474109
vt 0.756259 0.474109
vt 0.756259 0.474109
vt 0.756259 0.474109
vt 0.756259 0.474109
vt 0.756259 0.474109
vt 0.756259 0.474109
vt 0.756259 0.474109
vt 0.756259 0.474109
vt 0.756259 0.474109
vt 0.756259 0.474109
vt 0.756259 0.474109
vt 0.756259 0.474109
vt 0.756259 0.474109
vt 0.756259 0.474109
vt 0.756259 0.474109
vt 0.756259 0.474109
vt 0.756259 0.474109
vt 0.756259 0.474109
vt 0.756259 0.474109
vt 0.756259 0.474109
vt 0.756259 0.474109
vt 0.756259 0.474109
vt 0.756259 0.474109
vt 0.756259 0.474109
vt 0.756259 0.474109
vt 0.756259 0.474109
vt 0.756259 0.474109
vt 0.756259 0.474109
vt 0.756259 0.474109
vt 0.756259 0.474109
vt 0.756259 0.474109
vt 0.756259 0.474109
vt 0.756259 0.474109
vt 0.756259 0.474109
vt 0.756259 0.474109
vt 0.756259 0.474109
vt 0.756259 0.474109
vt 0.756259 0.474109
vt 0.756259 0.474109
vt 0.756259 0.474109
vt 0.756259 0.474109
vt 0.756259 0.474109
vt 0.756259 0.474109
vt 0.756259 0.474109
vt 0.756259 0.474109
vt 0.756259 0.474109
vt 0.756259 0.474109
vt 0.756259 0.474109
vt 0.756259 0.474109
vt 0.756259 0.474109
vt 0.756259 0.474109
vt 0.756259 0.474109
vt 0.756259 0.474109
vt 0.756259 0.474109
vt 0.756259 0.474109
vt 0.756259 0.474109
vt 0.756259 0.474109
vn 0.7240 -0.6898 -0.0029
vn 0.9956 -0.0919 0.0172
vn 0.9531 -0.0945 0.2874
vn 0.7078 -0.6536 0.2681
vn 0.8376 0.5456 0.0268
vn 0.8138 0.5002 0.2959
vn 0.6486 0.3278 0.6869
vn 0.6598 -0.0787 0.7473
vn 0.5750 -0.4729 0.6676
vn -0.7027 0.6727 0.2318
vn -0.9586 0.0815 0.2729
vn -0.8358 0.0637 0.5453
vn -0.6249 0.6000 0.4994
vn -0.8145 -0.5437 0.2025
vn -0.7260 -0.4993 0.4729
vn -0.5068 -0.3493 0.7881
vn -0.4959 0.0247 0.8680
vn -0.4382 0.3978 0.8061
vn -0.8285 -0.5596 -0.0229
vn -0.8406 -0.5415 -0.0132
vn -0.9922 0.1244 -0.0040
vn -0.9932 0.1148 -0.0194
vn -0.6808 0.7324 0.0067
vn -0.6765 0.7364 -0.0078
vn 0.8489 0.5285 0.0027
vn 0.8262 0.5634 -0.0026
vn 0.9945 -0.1040 -0.0125
vn 0.9931 -0.1169 -0.0011
vn 0.6992 -0.7146 -0.0221
vn 0.6968 -0.7172 -0.0119
vn -0.8321 -0.5543 0.0205
vn -0.9937 0.1029 0.0454
vn -0.8205 -0.5699 0.0448
vn -0.9927 0.0905 0.0797
vn -0.7014 0.7084 0.0787
vn -0.6995 0.7129 0.0503
vn -0.8214 -0.5651 0.0778
vn -0.9887 0.0880 0.1215
vn -0.7050 0.7009 0.1083
vn 0.8209 0.5700 -0.0343
vn 0.9933 -0.0963 -0.0634
vn 0.8193 0.5701 -0.0614
vn 0.9908 -0.0900 -0.1013
vn 0.7004 -0.7076 -0.0928
vn 0.6970 -0.7143 -0.0630
vn 0.8216 0.5679 -0.0503
vn 0.9925 -0.0892 -0.0836
vn 0.7045 -0.7050 -0.0810
vn -0.3616 -0.9300 0.0655
vn -0.3296 -0.8820 0.3368
vn -0.0912 -0.9958 0.0018
vn -0.0747 -0.9568 0.2811
vn -0.0158 -0.5956 0.8032
vn -0.2117 -0.5420 0.8133
vn 0.1865 -0.9824 -0.0115
vn 0.1995 -0.9452 0.2583
vn 0.2085 -0.6010 0.7716
vn 0.3624 0.9314 0.0346
vn 0.3672 0.8796 0.3023
vn 0.0917 0.9945 0.0498
vn 0.0997 0.9398 0.3268
vn 0.0894 0.5494 0.8307
vn 0.3111 0.5154 0.7985
vn -0.1864 0.9761 0.1114
vn -0.1648 0.9102 0.3800
vn -0.1130 0.5320 0.8391
vn 0.2269 -0.0443 0.9729
vn 0.0434 -0.0281 0.9987
vn -0.1218 -0.0127 0.9925
vn -0.1669 0.9849 0.0465
vn -0.1609 0.9864 0.0330
vn 0.0932 0.9953 0.0245
vn 0.0985 0.9950 0.0168
vn 0.1104 0.9939 -0.0011
vn -0.1330 0.9911 0.0082
vn 0.3465 0.9381 -0.0022
vn 0.3449 0.9386 0.0012
vn 0.3464 0.9381 -0.0022
vn -0.1729 0.9834 0.0542
vn 0.0911 0.9955 0.0243
vn 0.3467 0.9380 -0.0003
vn 0.1677 -0.9846 -0.0493
vn 0.1615 -0.9861 -0.0380
vn -0.0929 -0.9953 -0.0257
vn -0.0980 -0.9949 -0.0244
vn -0.1008 -0.9947 -0.0205
vn 0.1622 -0.9865 -0.0220
vn -0.3470 -0.9378 -0.0039
vn -0.3587 -0.9334 -0.0112
vn -0.3644 -0.9310 -0.0192
vn 0.1700 -0.9843 -0.0466
vn -0.0919 -0.9955 -0.0236
vn -0.3494 -0.9369 0.0079
vn -0.3622 -0.9319 -0.0213
vn -0.1019 -0.9946 -0.0193
vn 0.1616 -0.9867 -0.0176
vn 0.3691 0.9294 -0.0068
vn 0.1193 0.9928 -0.0112
vn -0.1062 0.9943 -0.0013
usemtl skin.005
s 1
f 81/1/1 82/2/2 83/3/3 84/4/4
f 82/2/2 85/5/5 86/6/6 83/3/3
f 83/3/3 86/6/6 87/7/7 88/8/8
f 84/4/4 83/3/3 88/8/8 89/9/9
f 90/10/10 91/11/11 92/12/12 93/13/13
f 91/11/11 94/14/14 95/15/15 92/12/12
f 92/12/12 95/15/15 96/16/16 97/17/17
f 93/13/13 92/12/12 97/17/17 98/18/18
f 99/19/19 100/20/20 101/21/21 102/22/22
f 102/22/22 101/21/21 103/23/23 104/24/24
f 105/25/25 106/26/26 107/27/27 108/28/28
f 108/28/28 107/27/27 109/29/29 110/30/30
f 100/20/20 111/31/31 112/32/32 101/21/21
f 111/31/31 113/33/33 114/34/34 112/32/32
f 112/32/32 114/34/34 115/35/35 116/36/36
f 101/21/21 112/32/32 116/36/36 103/23/23
f 113/33/33 117/37/37 118/38/38 114/34/34
f 117/37/37 94/14/14 91/11/11 118/38/38
f 118/38/38 91/11/11 90/10/10 119/39/39
f 114/34/34 118/38/38 119/39/39 115/35/35
f 106/26/26 120/40/40 121/41/41 107/27/27
f 120/40/40 122/42/42 123/43/43 121/41/41
f 121/41/41 123/43/43 124/44/44 125/45/45
f 107/27/27 121/41/41 125/45/45 109/29/29
f 122/42/42 126/46/46 127/47/47 123/43/43
f 126/46/46 85/5/5 82/2/2 127/47/47
f 127/47/47 82/2/2 81/1/1 128/48/48
f 123/43/43 127/47/47 128/48/48 124/44/44
f 94/14/14 129/49/49 130/50/50 95/15/15
f 129/49/49 131/51/51 132/52/52 130/50/50
f 130/50/50 132/52/52 133/53/53 134/54/54
f 95/15/15 130/50/50 134/54/54 96/16/16
f 131/51/51 135/55/55 136/56/56 132/52/52
f 135/55/55 81/1/1 84/4/4 136/56/56
f 136/56/56 84/4/4 89/9/9 137/57/57
f 132/52/52 136/56/56 137/57/57 133/53/53
f 85/5/5 138/58/58 139/59/59 86/6/6
f 138/58/58 140/60/60 141/61/61 139/59/59
f 139/59/59 141/61/61 142/62/62 143/63/63
f 86/6/6 139/59/59 143/63/63 87/7/7
f 140/60/60 144/64/64 145/65/65 141/61/61
f 144/64/64 90/10/10 93/13/13 145/65/65
f 145/65/65 93/13/13 98/18/18 146/66/66
f 141/61/61 145/65/65 146/66/66 142/62/62
f 87/7/7 143/63/63 147/67/67 88/8/8
f 143/63/63 142/62/62 148/68/68 147/67/67
f 147/67/67 148/68/68 133/53/53 137/57/57
f 88/8/8 147/67/67 137/57/57 89/9/9
f 142/62/62 146/66/66 149/69/69 148/68/68
f 146/66/66 98/18/18 97/17/17 149/69/69
f 149/69/69 97/17/17 96/16/16 134/54/54
f 148/68/68 149/69/69 134/54/54 133/53/53
f 115/35/35 150/70/70 151/71/71 116/36/36
f 150/70/70 152/72/72 153/73/73 151/71/71
f 151/71/71 153/73/73 154/74/74 155/75/75
f 116/36/36 151/71/71 155/75/75 103/23/23
f 152/72/72 156/76/76 157/77/77 153/73/73
f 156/76/76 122/42/42 120/40/40 157/77/77
f 157/77/77 120/40/40 106/26/26 158/78/78
f 153/73/73 157/77/77 158/78/78 154/74/74
f 90/10/10 144/64/64 159/79/79 119/39/39
f 144/64/64 140/60/60 160/80/80 159/79/79
f 159/79/79 160/80/80 152/72/72 150/70/70
f 119/39/39 159/79/79 150/70/70 115/35/35
f 140/60/60 138/58/58 161/81/81 160/80/80
f 138/58/58 85/5/5 126/46/46 161/81/81
f 161/81/81 126/46/46 122/42/42 156/76/76
f 160/80/80 161/81/81 156/76/76 152/72/72
f 124/44/44 162/82/82 163/83/83 125/45/45
f 162/82/82 164/84/84 165/85/85 163/83/83
f 163/83/83 165/85/85 166/86/86 167/87/87
f 125/45/45 163/83/83 167/87/87 109/29/29
f 164/84/84 168/88/88 169/89/89 165/85/85
f 168/88/88 113/33/33 111/31/31 169/89/89
f 169/89/89 111/31/31 100/20/20 170/90/90
f 165/85/85 169/89/89 170/90/90 166/86/86
f 81/1/1 135/55/55 171/91/91 128/48/48
f 135/55/55 131/51/51 172/92/92 171/91/91
f 171/91/91 172/92/92 164/84/84 162/82/82
f 128/48/48 171/91/91 162/82/82 124/44/44
f 131/51/51 129/49/49 173/93/93 172/92/92
f 129/49/49 94/14/14 117/37/37 173/93/93
f 173/93/93 117/37/37 113/33/33 168/88/88
f 172/92/92 173/93/93 168/88/88 164/84/84
f 170/90/90 100/20/20 99/19/19 174/94/94
f 166/86/86 170/90/90 174/94/94 175/95/95
f 167/87/87 166/86/86 175/95/95 176/96/96
f 109/29/29 167/87/87 176/96/96 110/30/30
f 158/78/78 106/26/26 105/25/25 177/97/97
f 154/74/74 158/78/78 177/97/97 178/98/98
f 155/75/75 154/74/74 178/98/98 179/99/99
f 103/23/23 155/75/75 179/99/99 104/24/24
